<?xml version="1.0" encoding="UTF-8" standalone="no"?>
<!DOCTYPE svg PUBLIC "-//W3C//DTD SVG 1.1//EN"
 "http://www.w3.org/Graphics/SVG/1.1/DTD/svg11.dtd">
<!-- Generated by graphviz version 11.0.0 (0)
 -->
<!-- Pages: 1 -->
<svg width="494pt" height="339pt"
 viewBox="0.00 0.00 494.00 339.20" xmlns="http://www.w3.org/2000/svg" xmlns:xlink="http://www.w3.org/1999/xlink">
<g id="graph0" class="graph" transform="scale(1 1) rotate(0) translate(4 335.2)">
<polygon fill="white" stroke="none" points="-4,4 -4,-335.2 490,-335.2 490,4 -4,4"/>
<!-- A0 -->
<g id="node1" class="node">
<title>A0</title>
<polygon fill="white" stroke="black" points="180,-324 0,-324 0,-252 180,-252 180,-324"/>
<text text-anchor="middle" x="90" y="-289.7" font-family="Helvetica,sans-Serif" font-size="14.00">100,000 patients</text>
<text text-anchor="middle" x="90" y="-274.7" font-family="Helvetica,sans-Serif" font-size="14.00">in MIMIC&#45;IV</text>
</g>
<!-- IA0 -->
<g id="node5" class="node">
<title>IA0</title>
<ellipse fill="white" stroke="black" cx="90" cy="-165.6" rx="0" ry="0"/>
</g>
<!-- A0&#45;&gt;IA0 -->
<g id="edge1" class="edge">
<title>A0&#45;&gt;IA0</title>
<path fill="none" stroke="black" d="M90,-251.61C90,-216.65 90,-168.71 90,-165.74"/>
</g>
<!-- plot_dist0 -->
<g id="node7" class="node">
<title>plot_dist0</title>
<polygon fill="white" stroke="none" points="432,-331.2 198,-331.2 198,-244.8 432,-244.8 432,-331.2"/>
<image xlink:href="part0.svg" width="234px" height="78.199px" preserveAspectRatio="xMinYMin meet" x="198" y="-322.999"/>
</g>
<!-- A0&#45;&gt;plot_dist0 -->
<!-- A1 -->
<g id="node2" class="node">
<title>A1</title>
<polygon fill="white" stroke="black" points="180,-79.2 0,-79.2 0,-7.2 180,-7.2 180,-79.2"/>
<text text-anchor="middle" x="90" y="-44.9" font-family="Helvetica,sans-Serif" font-size="14.00">66,397 patients</text>
<text text-anchor="middle" x="90" y="-29.9" font-family="Helvetica,sans-Serif" font-size="14.00">with English Proficiency data</text>
</g>
<!-- plot_dist1 -->
<g id="node3" class="node">
<title>plot_dist1</title>
<polygon fill="white" stroke="none" points="414,-86.4 198,-86.4 198,0 414,0 414,-86.4"/>
<image xlink:href="part1.svg" width="216px" height="72.1837px" preserveAspectRatio="xMinYMin meet" x="198" y="-72.1837"/>
</g>
<!-- E0 -->
<g id="node4" class="node">
<title>E0</title>
<polygon fill="floralwhite" stroke="black" points="288,-201.6 108,-201.6 108,-129.6 288,-129.6 288,-201.6"/>
<text text-anchor="middle" x="198" y="-167.3" font-family="Helvetica,sans-Serif" font-size="14.00">33,603 patients excluded for</text>
<text text-anchor="middle" x="198" y="-152.3" font-family="Helvetica,sans-Serif" font-size="14.00">missing English Proficiency</text>
</g>
<!-- legend -->
<g id="node8" class="node">
<title>legend</title>
<polygon fill="white" stroke="none" points="486,-208.8 306,-208.8 306,-122.4 486,-122.4 486,-208.8"/>
<image xlink:href="legend.svg" width="99.1475px" height="86.4px" preserveAspectRatio="xMinYMin meet" x="306" y="-208.8"/>
</g>
<!-- E0&#45;&gt;legend -->
<!-- IA0&#45;&gt;A1 -->
<g id="edge2" class="edge">
<title>IA0&#45;&gt;A1</title>
<path fill="none" stroke="black" d="M90,-165.25C90,-165.25 90,-85.82 90,-85.82"/>
<polygon fill="black" stroke="black" points="90,-80.82 92.25,-85.82 90,-82.1 90,-85.82 90,-85.82 90,-85.82 90,-82.1 87.75,-85.82 90,-80.82"/>
</g>
<!-- IA0&#45;&gt;E0 -->
<g id="edge3" class="edge">
<title>IA0&#45;&gt;E0</title>
<path fill="none" stroke="black" d="M90.08,-165C90.08,-165 101.62,-165 101.62,-165"/>
<polygon fill="black" stroke="black" points="106.62,-165 101.62,-167.25 105.34,-165 101.62,-165 101.62,-165 101.62,-165 105.34,-165 101.62,-162.75 106.62,-165"/>
</g>
<!-- IA1 -->
<g id="node6" class="node">
<title>IA1</title>
<ellipse fill="white" stroke="black" cx="450" cy="-288" rx="0" ry="0"/>
</g>
</g>
</svg>
