<?xml version="1.0" encoding="utf-8" standalone="no"?>
<!DOCTYPE svg PUBLIC "-//W3C//DTD SVG 1.1//EN"
  "http://www.w3.org/Graphics/SVG/1.1/DTD/svg11.dtd">
<svg xmlns:xlink="http://www.w3.org/1999/xlink" width="139.95pt" height="122.4825pt" viewBox="0 0 139.95 122.4825" xmlns="http://www.w3.org/2000/svg" version="1.1">
 <metadata>
  <rdf:RDF xmlns:dc="http://purl.org/dc/elements/1.1/" xmlns:cc="http://creativecommons.org/ns#" xmlns:rdf="http://www.w3.org/1999/02/22-rdf-syntax-ns#">
   <cc:Work>
    <dc:type rdf:resource="http://purl.org/dc/dcmitype/StillImage"/>
    <dc:date>2024-07-12T11:30:59.818239</dc:date>
    <dc:format>image/svg+xml</dc:format>
    <dc:creator>
     <cc:Agent>
      <dc:title>Matplotlib v3.8.0, https://matplotlib.org/</dc:title>
     </cc:Agent>
    </dc:creator>
   </cc:Work>
  </rdf:RDF>
 </metadata>
 <defs>
  <style type="text/css">*{stroke-linejoin: round; stroke-linecap: butt}</style>
 </defs>
 <g id="figure_1">
  <g id="patch_1">
   <path d="M 0 122.4825 
L 139.95 122.4825 
L 139.95 0 
L 0 0 
z
" style="fill: #ffffff"/>
  </g>
  <g id="axes_1">
   <g id="legend_1">
    <g id="patch_2">
     <path d="M 20.52 16.47875 
L 36.52 16.47875 
L 36.52 10.87875 
L 20.52 10.87875 
z
" style="fill: #1f77b4; stroke: #ffffff; stroke-linejoin: miter"/>
    </g>
    <g id="text_1">
     <!-- sex, %: Female -->
     <g transform="translate(42.92 16.47875) scale(0.08 -0.08)">
      <defs>
       <path id="DejaVuSans-73" d="M 2834 3397 
L 2834 2853 
Q 2591 2978 2328 3040 
Q 2066 3103 1784 3103 
Q 1356 3103 1142 2972 
Q 928 2841 928 2578 
Q 928 2378 1081 2264 
Q 1234 2150 1697 2047 
L 1894 2003 
Q 2506 1872 2764 1633 
Q 3022 1394 3022 966 
Q 3022 478 2636 193 
Q 2250 -91 1575 -91 
Q 1294 -91 989 -36 
Q 684 19 347 128 
L 347 722 
Q 666 556 975 473 
Q 1284 391 1588 391 
Q 1994 391 2212 530 
Q 2431 669 2431 922 
Q 2431 1156 2273 1281 
Q 2116 1406 1581 1522 
L 1381 1569 
Q 847 1681 609 1914 
Q 372 2147 372 2553 
Q 372 3047 722 3315 
Q 1072 3584 1716 3584 
Q 2034 3584 2315 3537 
Q 2597 3491 2834 3397 
z
" transform="scale(0.015625)"/>
       <path id="DejaVuSans-65" d="M 3597 1894 
L 3597 1613 
L 953 1613 
Q 991 1019 1311 708 
Q 1631 397 2203 397 
Q 2534 397 2845 478 
Q 3156 559 3463 722 
L 3463 178 
Q 3153 47 2828 -22 
Q 2503 -91 2169 -91 
Q 1331 -91 842 396 
Q 353 884 353 1716 
Q 353 2575 817 3079 
Q 1281 3584 2069 3584 
Q 2775 3584 3186 3129 
Q 3597 2675 3597 1894 
z
M 3022 2063 
Q 3016 2534 2758 2815 
Q 2500 3097 2075 3097 
Q 1594 3097 1305 2825 
Q 1016 2553 972 2059 
L 3022 2063 
z
" transform="scale(0.015625)"/>
       <path id="DejaVuSans-78" d="M 3513 3500 
L 2247 1797 
L 3578 0 
L 2900 0 
L 1881 1375 
L 863 0 
L 184 0 
L 1544 1831 
L 300 3500 
L 978 3500 
L 1906 2253 
L 2834 3500 
L 3513 3500 
z
" transform="scale(0.015625)"/>
       <path id="DejaVuSans-2c" d="M 750 794 
L 1409 794 
L 1409 256 
L 897 -744 
L 494 -744 
L 750 256 
L 750 794 
z
" transform="scale(0.015625)"/>
       <path id="DejaVuSans-20" transform="scale(0.015625)"/>
       <path id="DejaVuSans-25" d="M 4653 2053 
Q 4381 2053 4226 1822 
Q 4072 1591 4072 1178 
Q 4072 772 4226 539 
Q 4381 306 4653 306 
Q 4919 306 5073 539 
Q 5228 772 5228 1178 
Q 5228 1588 5073 1820 
Q 4919 2053 4653 2053 
z
M 4653 2450 
Q 5147 2450 5437 2106 
Q 5728 1763 5728 1178 
Q 5728 594 5436 251 
Q 5144 -91 4653 -91 
Q 4153 -91 3862 251 
Q 3572 594 3572 1178 
Q 3572 1766 3864 2108 
Q 4156 2450 4653 2450 
z
M 1428 4353 
Q 1159 4353 1004 4120 
Q 850 3888 850 3481 
Q 850 3069 1003 2837 
Q 1156 2606 1428 2606 
Q 1700 2606 1854 2837 
Q 2009 3069 2009 3481 
Q 2009 3884 1853 4118 
Q 1697 4353 1428 4353 
z
M 4250 4750 
L 4750 4750 
L 1831 -91 
L 1331 -91 
L 4250 4750 
z
M 1428 4750 
Q 1922 4750 2215 4408 
Q 2509 4066 2509 3481 
Q 2509 2891 2217 2550 
Q 1925 2209 1428 2209 
Q 931 2209 642 2551 
Q 353 2894 353 3481 
Q 353 4063 643 4406 
Q 934 4750 1428 4750 
z
" transform="scale(0.015625)"/>
       <path id="DejaVuSans-3a" d="M 750 794 
L 1409 794 
L 1409 0 
L 750 0 
L 750 794 
z
M 750 3309 
L 1409 3309 
L 1409 2516 
L 750 2516 
L 750 3309 
z
" transform="scale(0.015625)"/>
       <path id="DejaVuSans-46" d="M 628 4666 
L 3309 4666 
L 3309 4134 
L 1259 4134 
L 1259 2759 
L 3109 2759 
L 3109 2228 
L 1259 2228 
L 1259 0 
L 628 0 
L 628 4666 
z
" transform="scale(0.015625)"/>
       <path id="DejaVuSans-6d" d="M 3328 2828 
Q 3544 3216 3844 3400 
Q 4144 3584 4550 3584 
Q 5097 3584 5394 3201 
Q 5691 2819 5691 2113 
L 5691 0 
L 5113 0 
L 5113 2094 
Q 5113 2597 4934 2840 
Q 4756 3084 4391 3084 
Q 3944 3084 3684 2787 
Q 3425 2491 3425 1978 
L 3425 0 
L 2847 0 
L 2847 2094 
Q 2847 2600 2669 2842 
Q 2491 3084 2119 3084 
Q 1678 3084 1418 2786 
Q 1159 2488 1159 1978 
L 1159 0 
L 581 0 
L 581 3500 
L 1159 3500 
L 1159 2956 
Q 1356 3278 1631 3431 
Q 1906 3584 2284 3584 
Q 2666 3584 2933 3390 
Q 3200 3197 3328 2828 
z
" transform="scale(0.015625)"/>
       <path id="DejaVuSans-61" d="M 2194 1759 
Q 1497 1759 1228 1600 
Q 959 1441 959 1056 
Q 959 750 1161 570 
Q 1363 391 1709 391 
Q 2188 391 2477 730 
Q 2766 1069 2766 1631 
L 2766 1759 
L 2194 1759 
z
M 3341 1997 
L 3341 0 
L 2766 0 
L 2766 531 
Q 2569 213 2275 61 
Q 1981 -91 1556 -91 
Q 1019 -91 701 211 
Q 384 513 384 1019 
Q 384 1609 779 1909 
Q 1175 2209 1959 2209 
L 2766 2209 
L 2766 2266 
Q 2766 2663 2505 2880 
Q 2244 3097 1772 3097 
Q 1472 3097 1187 3025 
Q 903 2953 641 2809 
L 641 3341 
Q 956 3463 1253 3523 
Q 1550 3584 1831 3584 
Q 2591 3584 2966 3190 
Q 3341 2797 3341 1997 
z
" transform="scale(0.015625)"/>
       <path id="DejaVuSans-6c" d="M 603 4863 
L 1178 4863 
L 1178 0 
L 603 0 
L 603 4863 
z
" transform="scale(0.015625)"/>
      </defs>
      <use xlink:href="#DejaVuSans-73"/>
      <use xlink:href="#DejaVuSans-65" x="52.099609"/>
      <use xlink:href="#DejaVuSans-78" x="111.873047"/>
      <use xlink:href="#DejaVuSans-2c" x="171.052734"/>
      <use xlink:href="#DejaVuSans-20" x="202.839844"/>
      <use xlink:href="#DejaVuSans-25" x="234.626953"/>
      <use xlink:href="#DejaVuSans-3a" x="329.646484"/>
      <use xlink:href="#DejaVuSans-20" x="363.337891"/>
      <use xlink:href="#DejaVuSans-46" x="395.125"/>
      <use xlink:href="#DejaVuSans-65" x="447.144531"/>
      <use xlink:href="#DejaVuSans-6d" x="508.667969"/>
      <use xlink:href="#DejaVuSans-61" x="606.080078"/>
      <use xlink:href="#DejaVuSans-6c" x="667.359375"/>
      <use xlink:href="#DejaVuSans-65" x="695.142578"/>
     </g>
    </g>
    <g id="patch_3">
     <path d="M 20.52 28.22125 
L 36.52 28.22125 
L 36.52 22.62125 
L 20.52 22.62125 
z
" style="fill: #ff7f0e; stroke: #ffffff; stroke-linejoin: miter"/>
    </g>
    <g id="text_2">
     <!-- sex, %: Male -->
     <g transform="translate(42.92 28.22125) scale(0.08 -0.08)">
      <defs>
       <path id="DejaVuSans-4d" d="M 628 4666 
L 1569 4666 
L 2759 1491 
L 3956 4666 
L 4897 4666 
L 4897 0 
L 4281 0 
L 4281 4097 
L 3078 897 
L 2444 897 
L 1241 4097 
L 1241 0 
L 628 0 
L 628 4666 
z
" transform="scale(0.015625)"/>
      </defs>
      <use xlink:href="#DejaVuSans-73"/>
      <use xlink:href="#DejaVuSans-65" x="52.099609"/>
      <use xlink:href="#DejaVuSans-78" x="111.873047"/>
      <use xlink:href="#DejaVuSans-2c" x="171.052734"/>
      <use xlink:href="#DejaVuSans-20" x="202.839844"/>
      <use xlink:href="#DejaVuSans-25" x="234.626953"/>
      <use xlink:href="#DejaVuSans-3a" x="329.646484"/>
      <use xlink:href="#DejaVuSans-20" x="363.337891"/>
      <use xlink:href="#DejaVuSans-4d" x="395.125"/>
      <use xlink:href="#DejaVuSans-61" x="481.404297"/>
      <use xlink:href="#DejaVuSans-6c" x="542.683594"/>
      <use xlink:href="#DejaVuSans-65" x="570.466797"/>
     </g>
    </g>
    <g id="patch_4">
     <path d="M 20.52 39.96375 
L 36.52 39.96375 
L 36.52 34.36375 
L 20.52 34.36375 
z
" style="fill: #2ca02c; stroke: #ffffff; stroke-linejoin: miter"/>
    </g>
    <g id="text_3">
     <!-- race, %: Asian -->
     <g transform="translate(42.92 39.96375) scale(0.08 -0.08)">
      <defs>
       <path id="DejaVuSans-72" d="M 2631 2963 
Q 2534 3019 2420 3045 
Q 2306 3072 2169 3072 
Q 1681 3072 1420 2755 
Q 1159 2438 1159 1844 
L 1159 0 
L 581 0 
L 581 3500 
L 1159 3500 
L 1159 2956 
Q 1341 3275 1631 3429 
Q 1922 3584 2338 3584 
Q 2397 3584 2469 3576 
Q 2541 3569 2628 3553 
L 2631 2963 
z
" transform="scale(0.015625)"/>
       <path id="DejaVuSans-63" d="M 3122 3366 
L 3122 2828 
Q 2878 2963 2633 3030 
Q 2388 3097 2138 3097 
Q 1578 3097 1268 2742 
Q 959 2388 959 1747 
Q 959 1106 1268 751 
Q 1578 397 2138 397 
Q 2388 397 2633 464 
Q 2878 531 3122 666 
L 3122 134 
Q 2881 22 2623 -34 
Q 2366 -91 2075 -91 
Q 1284 -91 818 406 
Q 353 903 353 1747 
Q 353 2603 823 3093 
Q 1294 3584 2113 3584 
Q 2378 3584 2631 3529 
Q 2884 3475 3122 3366 
z
" transform="scale(0.015625)"/>
       <path id="DejaVuSans-41" d="M 2188 4044 
L 1331 1722 
L 3047 1722 
L 2188 4044 
z
M 1831 4666 
L 2547 4666 
L 4325 0 
L 3669 0 
L 3244 1197 
L 1141 1197 
L 716 0 
L 50 0 
L 1831 4666 
z
" transform="scale(0.015625)"/>
       <path id="DejaVuSans-69" d="M 603 3500 
L 1178 3500 
L 1178 0 
L 603 0 
L 603 3500 
z
M 603 4863 
L 1178 4863 
L 1178 4134 
L 603 4134 
L 603 4863 
z
" transform="scale(0.015625)"/>
       <path id="DejaVuSans-6e" d="M 3513 2113 
L 3513 0 
L 2938 0 
L 2938 2094 
Q 2938 2591 2744 2837 
Q 2550 3084 2163 3084 
Q 1697 3084 1428 2787 
Q 1159 2491 1159 1978 
L 1159 0 
L 581 0 
L 581 3500 
L 1159 3500 
L 1159 2956 
Q 1366 3272 1645 3428 
Q 1925 3584 2291 3584 
Q 2894 3584 3203 3211 
Q 3513 2838 3513 2113 
z
" transform="scale(0.015625)"/>
      </defs>
      <use xlink:href="#DejaVuSans-72"/>
      <use xlink:href="#DejaVuSans-61" x="41.113281"/>
      <use xlink:href="#DejaVuSans-63" x="102.392578"/>
      <use xlink:href="#DejaVuSans-65" x="157.373047"/>
      <use xlink:href="#DejaVuSans-2c" x="218.896484"/>
      <use xlink:href="#DejaVuSans-20" x="250.683594"/>
      <use xlink:href="#DejaVuSans-25" x="282.470703"/>
      <use xlink:href="#DejaVuSans-3a" x="377.490234"/>
      <use xlink:href="#DejaVuSans-20" x="411.181641"/>
      <use xlink:href="#DejaVuSans-41" x="442.96875"/>
      <use xlink:href="#DejaVuSans-73" x="511.376953"/>
      <use xlink:href="#DejaVuSans-69" x="563.476562"/>
      <use xlink:href="#DejaVuSans-61" x="591.259766"/>
      <use xlink:href="#DejaVuSans-6e" x="652.539062"/>
     </g>
    </g>
    <g id="patch_5">
     <path d="M 20.52 51.70625 
L 36.52 51.70625 
L 36.52 46.10625 
L 20.52 46.10625 
z
" style="fill: #d62728; stroke: #ffffff; stroke-linejoin: miter"/>
    </g>
    <g id="text_4">
     <!-- race, %: White -->
     <g transform="translate(42.92 51.70625) scale(0.08 -0.08)">
      <defs>
       <path id="DejaVuSans-57" d="M 213 4666 
L 850 4666 
L 1831 722 
L 2809 4666 
L 3519 4666 
L 4500 722 
L 5478 4666 
L 6119 4666 
L 4947 0 
L 4153 0 
L 3169 4050 
L 2175 0 
L 1381 0 
L 213 4666 
z
" transform="scale(0.015625)"/>
       <path id="DejaVuSans-68" d="M 3513 2113 
L 3513 0 
L 2938 0 
L 2938 2094 
Q 2938 2591 2744 2837 
Q 2550 3084 2163 3084 
Q 1697 3084 1428 2787 
Q 1159 2491 1159 1978 
L 1159 0 
L 581 0 
L 581 4863 
L 1159 4863 
L 1159 2956 
Q 1366 3272 1645 3428 
Q 1925 3584 2291 3584 
Q 2894 3584 3203 3211 
Q 3513 2838 3513 2113 
z
" transform="scale(0.015625)"/>
       <path id="DejaVuSans-74" d="M 1172 4494 
L 1172 3500 
L 2356 3500 
L 2356 3053 
L 1172 3053 
L 1172 1153 
Q 1172 725 1289 603 
Q 1406 481 1766 481 
L 2356 481 
L 2356 0 
L 1766 0 
Q 1100 0 847 248 
Q 594 497 594 1153 
L 594 3053 
L 172 3053 
L 172 3500 
L 594 3500 
L 594 4494 
L 1172 4494 
z
" transform="scale(0.015625)"/>
      </defs>
      <use xlink:href="#DejaVuSans-72"/>
      <use xlink:href="#DejaVuSans-61" x="41.113281"/>
      <use xlink:href="#DejaVuSans-63" x="102.392578"/>
      <use xlink:href="#DejaVuSans-65" x="157.373047"/>
      <use xlink:href="#DejaVuSans-2c" x="218.896484"/>
      <use xlink:href="#DejaVuSans-20" x="250.683594"/>
      <use xlink:href="#DejaVuSans-25" x="282.470703"/>
      <use xlink:href="#DejaVuSans-3a" x="377.490234"/>
      <use xlink:href="#DejaVuSans-20" x="411.181641"/>
      <use xlink:href="#DejaVuSans-57" x="442.96875"/>
      <use xlink:href="#DejaVuSans-68" x="541.845703"/>
      <use xlink:href="#DejaVuSans-69" x="605.224609"/>
      <use xlink:href="#DejaVuSans-74" x="633.007812"/>
      <use xlink:href="#DejaVuSans-65" x="672.216797"/>
     </g>
    </g>
    <g id="patch_6">
     <path d="M 20.52 63.44875 
L 36.52 63.44875 
L 36.52 57.84875 
L 20.52 57.84875 
z
" style="fill: #9467bd; stroke: #ffffff; stroke-linejoin: miter"/>
    </g>
    <g id="text_5">
     <!-- race, %: Hispanic -->
     <g transform="translate(42.92 63.44875) scale(0.08 -0.08)">
      <defs>
       <path id="DejaVuSans-48" d="M 628 4666 
L 1259 4666 
L 1259 2753 
L 3553 2753 
L 3553 4666 
L 4184 4666 
L 4184 0 
L 3553 0 
L 3553 2222 
L 1259 2222 
L 1259 0 
L 628 0 
L 628 4666 
z
" transform="scale(0.015625)"/>
       <path id="DejaVuSans-70" d="M 1159 525 
L 1159 -1331 
L 581 -1331 
L 581 3500 
L 1159 3500 
L 1159 2969 
Q 1341 3281 1617 3432 
Q 1894 3584 2278 3584 
Q 2916 3584 3314 3078 
Q 3713 2572 3713 1747 
Q 3713 922 3314 415 
Q 2916 -91 2278 -91 
Q 1894 -91 1617 61 
Q 1341 213 1159 525 
z
M 3116 1747 
Q 3116 2381 2855 2742 
Q 2594 3103 2138 3103 
Q 1681 3103 1420 2742 
Q 1159 2381 1159 1747 
Q 1159 1113 1420 752 
Q 1681 391 2138 391 
Q 2594 391 2855 752 
Q 3116 1113 3116 1747 
z
" transform="scale(0.015625)"/>
      </defs>
      <use xlink:href="#DejaVuSans-72"/>
      <use xlink:href="#DejaVuSans-61" x="41.113281"/>
      <use xlink:href="#DejaVuSans-63" x="102.392578"/>
      <use xlink:href="#DejaVuSans-65" x="157.373047"/>
      <use xlink:href="#DejaVuSans-2c" x="218.896484"/>
      <use xlink:href="#DejaVuSans-20" x="250.683594"/>
      <use xlink:href="#DejaVuSans-25" x="282.470703"/>
      <use xlink:href="#DejaVuSans-3a" x="377.490234"/>
      <use xlink:href="#DejaVuSans-20" x="411.181641"/>
      <use xlink:href="#DejaVuSans-48" x="442.96875"/>
      <use xlink:href="#DejaVuSans-69" x="518.164062"/>
      <use xlink:href="#DejaVuSans-73" x="545.947266"/>
      <use xlink:href="#DejaVuSans-70" x="598.046875"/>
      <use xlink:href="#DejaVuSans-61" x="661.523438"/>
      <use xlink:href="#DejaVuSans-6e" x="722.802734"/>
      <use xlink:href="#DejaVuSans-69" x="786.181641"/>
      <use xlink:href="#DejaVuSans-63" x="813.964844"/>
     </g>
    </g>
    <g id="patch_7">
     <path d="M 20.52 75.19125 
L 36.52 75.19125 
L 36.52 69.59125 
L 20.52 69.59125 
z
" style="fill: #8c564b; stroke: #ffffff; stroke-linejoin: miter"/>
    </g>
    <g id="text_6">
     <!-- race, %: Black -->
     <g transform="translate(42.92 75.19125) scale(0.08 -0.08)">
      <defs>
       <path id="DejaVuSans-42" d="M 1259 2228 
L 1259 519 
L 2272 519 
Q 2781 519 3026 730 
Q 3272 941 3272 1375 
Q 3272 1813 3026 2020 
Q 2781 2228 2272 2228 
L 1259 2228 
z
M 1259 4147 
L 1259 2741 
L 2194 2741 
Q 2656 2741 2882 2914 
Q 3109 3088 3109 3444 
Q 3109 3797 2882 3972 
Q 2656 4147 2194 4147 
L 1259 4147 
z
M 628 4666 
L 2241 4666 
Q 2963 4666 3353 4366 
Q 3744 4066 3744 3513 
Q 3744 3084 3544 2831 
Q 3344 2578 2956 2516 
Q 3422 2416 3680 2098 
Q 3938 1781 3938 1306 
Q 3938 681 3513 340 
Q 3088 0 2303 0 
L 628 0 
L 628 4666 
z
" transform="scale(0.015625)"/>
       <path id="DejaVuSans-6b" d="M 581 4863 
L 1159 4863 
L 1159 1991 
L 2875 3500 
L 3609 3500 
L 1753 1863 
L 3688 0 
L 2938 0 
L 1159 1709 
L 1159 0 
L 581 0 
L 581 4863 
z
" transform="scale(0.015625)"/>
      </defs>
      <use xlink:href="#DejaVuSans-72"/>
      <use xlink:href="#DejaVuSans-61" x="41.113281"/>
      <use xlink:href="#DejaVuSans-63" x="102.392578"/>
      <use xlink:href="#DejaVuSans-65" x="157.373047"/>
      <use xlink:href="#DejaVuSans-2c" x="218.896484"/>
      <use xlink:href="#DejaVuSans-20" x="250.683594"/>
      <use xlink:href="#DejaVuSans-25" x="282.470703"/>
      <use xlink:href="#DejaVuSans-3a" x="377.490234"/>
      <use xlink:href="#DejaVuSans-20" x="411.181641"/>
      <use xlink:href="#DejaVuSans-42" x="442.96875"/>
      <use xlink:href="#DejaVuSans-6c" x="511.572266"/>
      <use xlink:href="#DejaVuSans-61" x="539.355469"/>
      <use xlink:href="#DejaVuSans-63" x="600.634766"/>
      <use xlink:href="#DejaVuSans-6b" x="655.615234"/>
     </g>
    </g>
    <g id="patch_8">
     <path d="M 20.52 86.93375 
L 36.52 86.93375 
L 36.52 81.33375 
L 20.52 81.33375 
z
" style="fill: #e377c2; stroke: #ffffff; stroke-linejoin: miter"/>
    </g>
    <g id="text_7">
     <!-- english, %: Limited -->
     <g transform="translate(42.92 86.93375) scale(0.08 -0.08)">
      <defs>
       <path id="DejaVuSans-67" d="M 2906 1791 
Q 2906 2416 2648 2759 
Q 2391 3103 1925 3103 
Q 1463 3103 1205 2759 
Q 947 2416 947 1791 
Q 947 1169 1205 825 
Q 1463 481 1925 481 
Q 2391 481 2648 825 
Q 2906 1169 2906 1791 
z
M 3481 434 
Q 3481 -459 3084 -895 
Q 2688 -1331 1869 -1331 
Q 1566 -1331 1297 -1286 
Q 1028 -1241 775 -1147 
L 775 -588 
Q 1028 -725 1275 -790 
Q 1522 -856 1778 -856 
Q 2344 -856 2625 -561 
Q 2906 -266 2906 331 
L 2906 616 
Q 2728 306 2450 153 
Q 2172 0 1784 0 
Q 1141 0 747 490 
Q 353 981 353 1791 
Q 353 2603 747 3093 
Q 1141 3584 1784 3584 
Q 2172 3584 2450 3431 
Q 2728 3278 2906 2969 
L 2906 3500 
L 3481 3500 
L 3481 434 
z
" transform="scale(0.015625)"/>
       <path id="DejaVuSans-4c" d="M 628 4666 
L 1259 4666 
L 1259 531 
L 3531 531 
L 3531 0 
L 628 0 
L 628 4666 
z
" transform="scale(0.015625)"/>
       <path id="DejaVuSans-64" d="M 2906 2969 
L 2906 4863 
L 3481 4863 
L 3481 0 
L 2906 0 
L 2906 525 
Q 2725 213 2448 61 
Q 2172 -91 1784 -91 
Q 1150 -91 751 415 
Q 353 922 353 1747 
Q 353 2572 751 3078 
Q 1150 3584 1784 3584 
Q 2172 3584 2448 3432 
Q 2725 3281 2906 2969 
z
M 947 1747 
Q 947 1113 1208 752 
Q 1469 391 1925 391 
Q 2381 391 2643 752 
Q 2906 1113 2906 1747 
Q 2906 2381 2643 2742 
Q 2381 3103 1925 3103 
Q 1469 3103 1208 2742 
Q 947 2381 947 1747 
z
" transform="scale(0.015625)"/>
      </defs>
      <use xlink:href="#DejaVuSans-65"/>
      <use xlink:href="#DejaVuSans-6e" x="61.523438"/>
      <use xlink:href="#DejaVuSans-67" x="124.902344"/>
      <use xlink:href="#DejaVuSans-6c" x="188.378906"/>
      <use xlink:href="#DejaVuSans-69" x="216.162109"/>
      <use xlink:href="#DejaVuSans-73" x="243.945312"/>
      <use xlink:href="#DejaVuSans-68" x="296.044922"/>
      <use xlink:href="#DejaVuSans-2c" x="359.423828"/>
      <use xlink:href="#DejaVuSans-20" x="391.210938"/>
      <use xlink:href="#DejaVuSans-25" x="422.998047"/>
      <use xlink:href="#DejaVuSans-3a" x="518.017578"/>
      <use xlink:href="#DejaVuSans-20" x="551.708984"/>
      <use xlink:href="#DejaVuSans-4c" x="583.496094"/>
      <use xlink:href="#DejaVuSans-69" x="639.208984"/>
      <use xlink:href="#DejaVuSans-6d" x="666.992188"/>
      <use xlink:href="#DejaVuSans-69" x="764.404297"/>
      <use xlink:href="#DejaVuSans-74" x="792.1875"/>
      <use xlink:href="#DejaVuSans-65" x="831.396484"/>
      <use xlink:href="#DejaVuSans-64" x="892.919922"/>
     </g>
    </g>
    <g id="patch_9">
     <path d="M 20.52 98.67625 
L 36.52 98.67625 
L 36.52 93.07625 
L 20.52 93.07625 
z
" style="fill: #7f7f7f; stroke: #ffffff; stroke-linejoin: miter"/>
    </g>
    <g id="text_8">
     <!-- english, %: Fluent -->
     <g transform="translate(42.92 98.67625) scale(0.08 -0.08)">
      <defs>
       <path id="DejaVuSans-75" d="M 544 1381 
L 544 3500 
L 1119 3500 
L 1119 1403 
Q 1119 906 1312 657 
Q 1506 409 1894 409 
Q 2359 409 2629 706 
Q 2900 1003 2900 1516 
L 2900 3500 
L 3475 3500 
L 3475 0 
L 2900 0 
L 2900 538 
Q 2691 219 2414 64 
Q 2138 -91 1772 -91 
Q 1169 -91 856 284 
Q 544 659 544 1381 
z
M 1991 3584 
L 1991 3584 
z
" transform="scale(0.015625)"/>
      </defs>
      <use xlink:href="#DejaVuSans-65"/>
      <use xlink:href="#DejaVuSans-6e" x="61.523438"/>
      <use xlink:href="#DejaVuSans-67" x="124.902344"/>
      <use xlink:href="#DejaVuSans-6c" x="188.378906"/>
      <use xlink:href="#DejaVuSans-69" x="216.162109"/>
      <use xlink:href="#DejaVuSans-73" x="243.945312"/>
      <use xlink:href="#DejaVuSans-68" x="296.044922"/>
      <use xlink:href="#DejaVuSans-2c" x="359.423828"/>
      <use xlink:href="#DejaVuSans-20" x="391.210938"/>
      <use xlink:href="#DejaVuSans-25" x="422.998047"/>
      <use xlink:href="#DejaVuSans-3a" x="518.017578"/>
      <use xlink:href="#DejaVuSans-20" x="551.708984"/>
      <use xlink:href="#DejaVuSans-46" x="583.496094"/>
      <use xlink:href="#DejaVuSans-6c" x="641.015625"/>
      <use xlink:href="#DejaVuSans-75" x="668.798828"/>
      <use xlink:href="#DejaVuSans-65" x="732.177734"/>
      <use xlink:href="#DejaVuSans-6e" x="793.701172"/>
      <use xlink:href="#DejaVuSans-74" x="857.080078"/>
     </g>
    </g>
    <g id="patch_10">
     <path d="M 20.52 110.41875 
L 36.52 110.41875 
L 36.52 104.81875 
L 20.52 104.81875 
z
" style="fill: url(#h9a38e75bde); stroke: #ffffff; stroke-linejoin: miter"/>
    </g>
    <g id="text_9">
     <!-- Missing -->
     <g transform="translate(42.92 110.41875) scale(0.08 -0.08)">
      <use xlink:href="#DejaVuSans-4d"/>
      <use xlink:href="#DejaVuSans-69" x="86.279297"/>
      <use xlink:href="#DejaVuSans-73" x="114.0625"/>
      <use xlink:href="#DejaVuSans-73" x="166.162109"/>
      <use xlink:href="#DejaVuSans-69" x="218.261719"/>
      <use xlink:href="#DejaVuSans-6e" x="246.044922"/>
      <use xlink:href="#DejaVuSans-67" x="309.423828"/>
     </g>
    </g>
   </g>
  </g>
 </g>
 <defs>
  <pattern id="h9a38e75bde" patternUnits="userSpaceOnUse" x="0" y="0" width="72" height="72">
   <rect x="0" y="0" width="73" height="73" fill="#d3d3d3"/>
   <path d="M -36 36 
L 36 -36 
M -34.285714 37.714286 
L 37.714286 -34.285714 
M -32.571429 39.428571 
L 39.428571 -32.571429 
M -30.857143 41.142857 
L 41.142857 -30.857143 
M -29.142857 42.857143 
L 42.857143 -29.142857 
M -27.428571 44.571429 
L 44.571429 -27.428571 
M -25.714286 46.285714 
L 46.285714 -25.714286 
M -24 48 
L 48 -24 
M -22.285714 49.714286 
L 49.714286 -22.285714 
M -20.571429 51.428571 
L 51.428571 -20.571429 
M -18.857143 53.142857 
L 53.142857 -18.857143 
M -17.142857 54.857143 
L 54.857143 -17.142857 
M -15.428571 56.571429 
L 56.571429 -15.428571 
M -13.714286 58.285714 
L 58.285714 -13.714286 
M -12 60 
L 60 -12 
M -10.285714 61.714286 
L 61.714286 -10.285714 
M -8.571429 63.428571 
L 63.428571 -8.571429 
M -6.857143 65.142857 
L 65.142857 -6.857143 
M -5.142857 66.857143 
L 66.857143 -5.142857 
M -3.428571 68.571429 
L 68.571429 -3.428571 
M -1.714286 70.285714 
L 70.285714 -1.714286 
M 0 72 
L 72 0 
M 1.714286 73.714286 
L 73.714286 1.714286 
M 3.428571 75.428571 
L 75.428571 3.428571 
M 5.142857 77.142857 
L 77.142857 5.142857 
M 6.857143 78.857143 
L 78.857143 6.857143 
M 8.571429 80.571429 
L 80.571429 8.571429 
M 10.285714 82.285714 
L 82.285714 10.285714 
M 12 84 
L 84 12 
M 13.714286 85.714286 
L 85.714286 13.714286 
M 15.428571 87.428571 
L 87.428571 15.428571 
M 17.142857 89.142857 
L 89.142857 17.142857 
M 18.857143 90.857143 
L 90.857143 18.857143 
M 20.571429 92.571429 
L 92.571429 20.571429 
M 22.285714 94.285714 
L 94.285714 22.285714 
M 24 96 
L 96 24 
M 25.714286 97.714286 
L 97.714286 25.714286 
M 27.428571 99.428571 
L 99.428571 27.428571 
M 29.142857 101.142857 
L 101.142857 29.142857 
M 30.857143 102.857143 
L 102.857143 30.857143 
M 32.571429 104.571429 
L 104.571429 32.571429 
M 34.285714 106.285714 
L 106.285714 34.285714 
M 36 108 
L 108 36 
" style="fill: #ffffff; stroke: #ffffff; stroke-width: 1.0; stroke-linecap: butt; stroke-linejoin: miter"/>
  </pattern>
 </defs>
</svg>
